# xmcd CD database file
#
# Track frame offsets:
#	150
#	22636
#	40523
#	56183
#	78731
#	107014
#	113899
#	137501
#	152207
#	173019
#	198927
#
# Disc length: 3263 seconds
#
# Revision: 0
# Processed by: cddbd v1.5.2PL0 Copyright (c) Steve Scherf et al.
# Submitted via: CDex 1.70beta2
#
DISCID=830cbd0b
DTITLE=Van Morrison - Live at Philipshalle - Düsseldorf - disc 1
DYEAR=1998
DGENRE=Blues
TTITLE0=Chicken
TTITLE1=Jackie Wilson Said
TTITLE2=These Dreams (Of You)
TTITLE3=Raincheck
TTITLE4=Moondance and My Funny Valentine
TTITLE5=Rough God Goes Riding
TTITLE6=Give Me a Kiss
TTITLE7=That's Life
TTITLE8=Naked In The Jungle
TTITLE9=In The Afternoon
TTITLE10=Satisfied
EXTD=YEAR: 1998
EXTT0=
EXTT1=
EXTT2=
EXTT3=
EXTT4=
EXTT5=
EXTT6=
EXTT7=
EXTT8=
EXTT9=
EXTT10=
PLAYORDER=
